<?xml version="1.0" ?><!DOCTYPE svg  PUBLIC '-//W3C//DTD SVG 1.1//EN'  'http://www.w3.org/Graphics/SVG/1.1/DTD/svg11.dtd'><svg id="Capa_1" style="enable-background:new 0 0 58 58;" version="1.1" viewBox="0 0 58 58" xml:space="preserve" xmlns="http://www.w3.org/2000/svg" xmlns:xlink="http://www.w3.org/1999/xlink"><g><path d="M53,3.293H5c-2.722,0-5,2.278-5,5v33c0,2.722,2.278,5,5,5h27.681l-4.439-5.161   c-0.36-0.418-0.313-1.05,0.106-1.41c0.419-0.36,1.051-0.312,1.411,0.106l4.998,5.811L43,54.707v-8.414h2h6h2c2.722,0,5-2.278,5-5   v-33C58,5.571,55.722,3.293,53,3.293z" style="fill:#26B99A;"/><path d="M26,18.293H11c-0.553,0-1-0.448-1-1s0.447-1,1-1h15c0.553,0,1,0.448,1,1S26.553,18.293,26,18.293z" style="fill:#FFFFFF;"/><path d="M45,26.293H11c-0.553,0-1-0.448-1-1s0.447-1,1-1h34c0.553,0,1,0.448,1,1S45.553,26.293,45,26.293z" style="fill:#FFFFFF;"/><path d="M45,34.293H11c-0.553,0-1-0.448-1-1s0.447-1,1-1h34c0.553,0,1,0.448,1,1S45.553,34.293,45,34.293z" style="fill:#FFFFFF;"/></g><g/><g/><g/><g/><g/><g/><g/><g/><g/><g/><g/><g/><g/><g/><g/></svg>